<?xml version="1.0" encoding="UTF-8"?>
<svg id="Layer_1" xmlns="http://www.w3.org/2000/svg" xmlns:xlink="http://www.w3.org/1999/xlink" version="1.1" viewBox="0 0 20 20">
  <!-- Generator: Adobe Illustrator 30.4.0, SVG Export Plug-In . SVG Version: 2.1.4 Build 226)  -->
  <defs>
    <style>
      .st0 {
        fill: none;
      }

      .st1 {
        fill: #2c2559;
      }

      .st2 {
        opacity: .1;
      }

      .st3 {
        fill: #47278c;
      }

      .st4 {
        clip-path: url(#clippath);
      }
    </style>
    <clipPath id="clippath">
      <rect class="st0" width="20" height="20"/>
    </clipPath>
  </defs>
  <rect class="st1" width="20" height="20"/>
  <g class="st4">
    <g class="st2">
      <polygon class="st3" points="-20 0 -20 .4 -19.6 0 -20 0"/>
      <polygon class="st3" points="-17.5 0 -20 2.5 -20 2.9 -17.1 0 -17.5 0"/>
      <polygon class="st3" points="-15 0 -20 5 -20 5.4 -14.6 0 -15 0"/>
      <polygon class="st3" points="-12.6 0 -20 7.4 -20 7.9 -12.1 0 -12.6 0"/>
      <polygon class="st3" points="-10.1 0 -20 9.9 -20 10.4 -9.6 0 -10.1 0"/>
      <polygon class="st3" points="-7.6 0 -20 12.4 -20 12.8 -7.2 0 -7.6 0"/>
      <polygon class="st3" points="-5.1 0 -20 14.9 -20 15.3 -4.7 0 -5.1 0"/>
      <polygon class="st3" points="-2.6 0 -20 17.4 -20 17.8 -2.2 0 -2.6 0"/>
      <polygon class="st3" points="-.1 0 -20 19.9 -20 20 -19.7 20 .3 0 -.1 0"/>
      <polygon class="st3" points="-17.2 20 2.8 0 2.3 0 -17.7 20 -17.2 20"/>
      <polygon class="st3" points="-14.7 20 5.3 0 4.8 0 -15.2 20 -14.7 20"/>
      <polygon class="st3" points="-12.3 20 7.7 0 7.3 0 -12.7 20 -12.3 20"/>
      <polygon class="st3" points="-9.8 20 10.2 0 9.8 0 -10.2 20 -9.8 20"/>
      <polygon class="st3" points="-7.3 20 12.7 0 12.3 0 -7.7 20 -7.3 20"/>
      <polygon class="st3" points="-4.8 20 15.2 0 14.7 0 -5.3 20 -4.8 20"/>
      <polygon class="st3" points="-2.3 20 17.7 0 17.2 0 -2.8 20 -2.3 20"/>
      <polygon class="st3" points=".1 20 20 .1 20 0 19.7 0 -.3 20 .1 20"/>
      <polygon class="st3" points="2.6 20 20 2.6 20 2.2 2.2 20 2.6 20"/>
      <polygon class="st3" points="5.1 20 20 5.1 20 4.7 4.7 20 5.1 20"/>
      <polygon class="st3" points="7.6 20 20 7.6 20 7.2 7.2 20 7.6 20"/>
      <polygon class="st3" points="10.1 20 20 10.1 20 9.6 9.6 20 10.1 20"/>
      <polygon class="st3" points="12.6 20 20 12.6 20 12.1 12.1 20 12.6 20"/>
      <polygon class="st3" points="15 20 20 15 20 14.6 14.6 20 15 20"/>
      <polygon class="st3" points="17.5 20 20 17.5 20 17.1 17.1 20 17.5 20"/>
      <polygon class="st3" points="20 20 20 19.6 19.6 20 20 20"/>
    </g>
  </g>
</svg>